<svg width="80" height="80" viewBox="0 0 80 80" fill="none" xmlns="http://www.w3.org/2000/svg">
<path d="M34.0088 21.6564C27.8477 17.015 21.7939 14.8617 21.5394 14.7722C19.7914 14.1586 17.86 14.9581 17.0577 16.6287C16.9408 16.8722 14.183 22.6761 13.1082 30.3154C12.8285 32.3042 14.2138 34.1428 16.2027 34.4226C16.3746 34.4468 16.545 34.4586 16.7135 34.4586L34.7253 26.7484C35.9336 25.1447 35.6128 22.8648 34.0088 21.6564Z" fill="#DCF8C6"/>
<path d="M43.6307 65.4803C43.5199 63.4752 41.8017 61.9392 39.7999 62.05C39.7735 62.0514 39.3046 62.0741 38.504 62.0681L28.9392 38.9755C29.5599 38.7191 30.1185 38.2905 30.5313 37.6983C31.6799 36.0511 31.2756 33.7845 29.6279 32.6358C18.6351 24.9713 4.0779 25.6789 3.46243 25.713C1.61165 25.815 0.134152 27.2928 0.0318078 29.1433C-0.0103797 29.9127 -0.880067 48.1117 10.1757 59.1678C19.5552 68.5469 34.0745 69.3434 38.7329 69.3434C39.5659 69.3434 40.0837 69.318 40.2007 69.3114C42.2056 69.2006 43.7415 67.4853 43.6307 65.4803Z" fill="#128C7E"/>
<path d="M42.4265 11.5837C41.046 10.3471 38.9562 10.3471 37.5754 11.5837C37.0012 12.0976 23.5176 24.3512 23.5176 39.9871C23.5176 55.6229 37.0012 67.8762 37.5754 68.3901C38.2657 69.0082 39.133 69.3173 40.001 69.3173C40.8684 69.3173 41.7362 69.0082 42.4266 68.3901C43.0004 67.8762 56.4845 55.6229 56.4845 39.9871C56.4843 24.3512 43.0002 12.0976 42.4265 11.5837Z" fill="#075E54"/>
<path d="M66.8926 30.3171C65.8178 22.6778 63.0593 16.8738 62.9425 16.6307C62.1398 14.9601 60.2098 14.1603 58.4608 14.7743C58.2059 14.8635 52.1529 17.0168 45.9917 21.6582C44.3876 22.8663 44.0667 25.1462 45.2748 26.7503L63.2872 34.4604C63.4556 34.4604 63.6265 34.4488 63.7984 34.4245C65.787 34.1446 67.1725 32.3057 66.8926 30.3171Z" fill="#DCF8C6"/>
<path d="M79.9675 29.1431C79.8651 27.2924 78.3875 25.8149 76.5373 25.7129C75.9223 25.679 61.3634 24.9713 50.3718 32.6359C48.7247 33.7845 48.3203 36.0509 49.4689 37.6984C49.8817 38.2904 50.44 38.719 51.0611 38.9754L41.4978 62.0643C40.692 62.0723 40.2203 62.0512 40.1939 62.0498C38.1973 61.9426 36.4797 63.4773 36.3689 65.4804C36.2586 67.4854 37.7945 69.2007 39.7995 69.3112C39.9159 69.3178 40.4334 69.3432 41.2673 69.3432C45.9267 69.3432 60.4451 68.5462 69.824 59.1676C80.8803 48.1117 80.0101 29.9124 79.9675 29.1431Z" fill="#25D366"/>
<path d="M42.4256 11.5834C41.7353 10.9653 40.8673 10.6562 40 10.6562V69.3173C40.8673 69.3173 41.7352 69.0083 42.4256 68.3902C42.9994 67.8763 56.4834 55.6228 56.4834 39.9872C56.4834 24.3509 42.9994 12.0973 42.4256 11.5834Z" fill="#128C7E"/>
</svg>
